<svg width="20" height="20" viewBox="0 0 20 20" fill="none" xmlns="http://www.w3.org/2000/svg">
<path d="M3.27148 19.0898C1.16211 19.0898 0.0585938 17.9961 0.0585938 15.9062V4.02148C0.0585938 1.92188 1.16211 0.837891 3.27148 0.837891H16.7188C18.8379 0.837891 19.9414 1.93164 19.9414 4.02148V15.9062C19.9414 17.9961 18.8379 19.0898 16.7188 19.0898H3.27148ZM3.26172 17.1465H16.7285C17.5391 17.1465 17.9883 16.7266 17.9883 15.8672V6.88281C17.9883 6.02344 17.5391 5.60352 16.7285 5.60352H3.26172C2.45117 5.60352 2.00195 6.02344 2.00195 6.88281V15.8672C2.00195 16.7266 2.45117 17.1465 3.26172 17.1465ZM8.11523 8.97266C7.76367 8.97266 7.64648 8.86523 7.64648 8.52344V7.94727C7.64648 7.5957 7.76367 7.48828 8.11523 7.48828H8.69141C9.04297 7.48828 9.16016 7.5957 9.16016 7.94727V8.52344C9.16016 8.86523 9.04297 8.97266 8.69141 8.97266H8.11523ZM11.3086 8.97266C10.957 8.97266 10.8398 8.86523 10.8398 8.52344V7.94727C10.8398 7.5957 10.957 7.48828 11.3086 7.48828H11.8848C12.2266 7.48828 12.3438 7.5957 12.3438 7.94727V8.52344C12.3438 8.86523 12.2266 8.97266 11.8848 8.97266H11.3086ZM14.4922 8.97266C14.1504 8.97266 14.0332 8.86523 14.0332 8.52344V7.94727C14.0332 7.5957 14.1504 7.48828 14.4922 7.48828H15.0684C15.4199 7.48828 15.5371 7.5957 15.5371 7.94727V8.52344C15.5371 8.86523 15.4199 8.97266 15.0684 8.97266H14.4922ZM4.93164 12.1172C4.58008 12.1172 4.46289 12.0098 4.46289 11.6582V11.082C4.46289 10.7402 4.58008 10.6328 4.93164 10.6328H5.49805C5.84961 10.6328 5.9668 10.7402 5.9668 11.082V11.6582C5.9668 12.0098 5.84961 12.1172 5.49805 12.1172H4.93164ZM8.11523 12.1172C7.76367 12.1172 7.64648 12.0098 7.64648 11.6582V11.082C7.64648 10.7402 7.76367 10.6328 8.11523 10.6328H8.69141C9.04297 10.6328 9.16016 10.7402 9.16016 11.082V11.6582C9.16016 12.0098 9.04297 12.1172 8.69141 12.1172H8.11523ZM11.3086 12.1172C10.957 12.1172 10.8398 12.0098 10.8398 11.6582V11.082C10.8398 10.7402 10.957 10.6328 11.3086 10.6328H11.8848C12.2266 10.6328 12.3438 10.7402 12.3438 11.082V11.6582C12.3438 12.0098 12.2266 12.1172 11.8848 12.1172H11.3086ZM14.4922 12.1172C14.1504 12.1172 14.0332 12.0098 14.0332 11.6582V11.082C14.0332 10.7402 14.1504 10.6328 14.4922 10.6328H15.0684C15.4199 10.6328 15.5371 10.7402 15.5371 11.082V11.6582C15.5371 12.0098 15.4199 12.1172 15.0684 12.1172H14.4922ZM4.93164 15.252C4.58008 15.252 4.46289 15.1445 4.46289 14.8027V14.2266C4.46289 13.875 4.58008 13.7676 4.93164 13.7676H5.49805C5.84961 13.7676 5.9668 13.875 5.9668 14.2266V14.8027C5.9668 15.1445 5.84961 15.252 5.49805 15.252H4.93164ZM8.11523 15.252C7.76367 15.252 7.64648 15.1445 7.64648 14.8027V14.2266C7.64648 13.875 7.76367 13.7676 8.11523 13.7676H8.69141C9.04297 13.7676 9.16016 13.875 9.16016 14.2266V14.8027C9.16016 15.1445 9.04297 15.252 8.69141 15.252H8.11523ZM11.3086 15.252C10.957 15.252 10.8398 15.1445 10.8398 14.8027V14.2266C10.8398 13.875 10.957 13.7676 11.3086 13.7676H11.8848C12.2266 13.7676 12.3438 13.875 12.3438 14.2266V14.8027C12.3438 15.1445 12.2266 15.252 11.8848 15.252H11.3086Z" fill="#ED8C1A"/>
</svg>
